<svg width="170" height="56" viewBox="0 0 170 56" fill="none" xmlns="http://www.w3.org/2000/svg">
<g clip-path="url(#clip0_1_22)">
<mask id="mask0_1_22" style="mask-type:luminance" maskUnits="userSpaceOnUse" x="0" y="0" width="170" height="56">
<path d="M170 0H0V56H170V0Z" fill="white"/>
</mask>
<g mask="url(#mask0_1_22)">
<path d="M168.404 40.9633C168.404 53.7108 162.898 55.0688 156.59 55.0688V27.4267C162.532 27.4267 163.112 31.5135 163.112 37.5272H163.622V16.6146H163.112C163.112 22.6328 162.532 26.9309 156.59 26.9309V0.931177C162.894 0.931177 167.967 1.93133 167.967 14.9678H168.473V0H145.868V0.500078H149.925V55.4955H145.868V56H168.91V40.9589H168.404V40.9633ZM107.972 21.6283V0.500078H112.029V0H97.2495V0.500078H101.306V55.4955H97.2495V56H120.291V40.9589H119.785C119.785 53.7066 114.276 55.4955 107.977 55.4955V21.624L107.972 21.6283ZM59.3496 21.6283V0.500078H63.4065V0H48.627V0.500078H52.6839V55.4955H48.627V56H71.6687V40.9589H71.1627C71.1627 53.7066 65.6575 55.4955 59.354 55.4955V21.624L59.3496 21.6283ZM22.5358 40.9633C22.5358 53.7108 17.0306 55.0688 10.727 55.0688V27.4267C16.6641 27.4267 17.2487 31.5135 17.2487 37.5272H17.7547V16.6146H17.2487C17.2487 22.6328 16.6685 26.9309 10.727 26.9309V0.931177C17.0306 0.931177 22.0996 1.93133 22.0996 14.9678H22.6056V0H0V0.500078H4.05697V55.4955H0V56H23.0418V40.9589H22.5358V40.9633Z" fill="black"/>
</g>
</g>
<defs>
<clipPath id="clip0_1_22">
<rect width="170" height="56" fill="white"/>
</clipPath>
</defs>
</svg>
