<svg width="24" height="24" viewBox="0 0 24 24" fill="none" xmlns="http://www.w3.org/2000/svg">
<path fill-rule="evenodd" clip-rule="evenodd" d="M16.622 15.172L20.866 19.416L19.452 20.831L15.212 16.591C13.7984 17.6556 12.034 18.1454 10.2738 17.9616C8.51372 17.7778 6.88854 16.9342 5.72533 15.6004C4.56213 14.2667 3.94726 12.542 4.00446 10.7732C4.06165 9.00443 4.78666 7.32297 6.03359 6.06719C7.28052 4.81142 8.95682 4.07454 10.7251 4.00485C12.4935 3.93516 14.2225 4.53783 15.5644 5.69157C16.9063 6.84532 17.7614 8.4645 17.9576 10.2233C18.1539 11.9821 17.6766 13.7499 16.622 15.171V15.172ZM16 11C16 9.67392 15.4732 8.40215 14.5355 7.46447C13.5979 6.52678 12.3261 6 11 6C9.67392 6 8.40215 6.52678 7.46447 7.46447C6.52678 8.40215 6 9.67392 6 11C6 12.3261 6.52678 13.5979 7.46447 14.5355C8.40215 15.4732 9.67392 16 11 16C12.3261 16 13.5979 15.4732 14.5355 14.5355C15.4732 13.5979 16 12.3261 16 11Z" fill="#111111"/>
</svg>
