<svg width="66" height="66" viewBox="0 0 66 66" fill="none" xmlns="http://www.w3.org/2000/svg">
<path d="M36.3954 13.7079C36.2996 13.8036 36.2235 13.9174 36.1716 14.0426C36.1197 14.1678 36.093 14.302 36.093 14.4375C36.093 14.573 36.1197 14.7072 36.1716 14.8324C36.2235 14.9576 36.2996 15.0713 36.3954 15.1671L53.1971 31.9687L10.3125 31.9687C10.039 31.9687 9.77674 32.0774 9.58334 32.2708C9.38994 32.4642 9.2813 32.7265 9.2813 33C9.2813 33.2735 9.38994 33.5358 9.58334 33.7292C9.77674 33.9226 10.039 34.0312 10.3125 34.0312L53.1971 34.0312L36.3954 50.8329C36.2996 50.9287 36.2236 51.0424 36.1718 51.1676C36.1199 51.2928 36.0932 51.427 36.0932 51.5625C36.0932 51.698 36.1199 51.8322 36.1718 51.9573C36.2236 52.0825 36.2996 52.1963 36.3954 52.2921C36.4912 52.3879 36.605 52.4639 36.7302 52.5158C36.8554 52.5676 36.9895 52.5943 37.125 52.5943C37.2605 52.5943 37.3947 52.5676 37.5199 52.5158C37.6451 52.4639 37.7588 52.3879 37.8547 52.2921L56.4172 33.7296C56.513 33.6338 56.5891 33.5201 56.641 33.3949C56.6929 33.2697 56.7196 33.1355 56.7196 33C56.7196 32.8645 56.6929 32.7303 56.641 32.6051C56.5891 32.4799 56.513 32.3661 56.4172 32.2704L37.8547 13.7079C37.7589 13.612 37.6451 13.5359 37.52 13.484C37.3948 13.4321 37.2606 13.4054 37.125 13.4054C36.9895 13.4054 36.8553 13.4321 36.7301 13.484C36.6049 13.5359 36.4912 13.612 36.3954 13.7079Z" fill="black"/>
</svg>
