<svg width="66" height="66" viewBox="0 0 66 66" fill="none" xmlns="http://www.w3.org/2000/svg">
<path d="M29.6046 13.7079C29.7004 13.8036 29.7765 13.9174 29.8284 14.0426C29.8803 14.1678 29.907 14.302 29.907 14.4375C29.907 14.573 29.8803 14.7072 29.8284 14.8324C29.7765 14.9576 29.7004 15.0713 29.6046 15.1671L12.8029 31.9687L55.6875 31.9687C55.961 31.9687 56.2233 32.0774 56.4167 32.2708C56.6101 32.4642 56.7187 32.7265 56.7187 33C56.7187 33.2735 56.6101 33.5358 56.4167 33.7292C56.2233 33.9226 55.961 34.0312 55.6875 34.0312L12.8029 34.0312L29.6046 50.8329C29.7004 50.9287 29.7764 51.0424 29.8282 51.1676C29.8801 51.2928 29.9068 51.427 29.9068 51.5625C29.9068 51.698 29.8801 51.8322 29.8282 51.9573C29.7764 52.0825 29.7004 52.1963 29.6046 52.2921C29.5088 52.3879 29.395 52.4639 29.2698 52.5158C29.1446 52.5676 29.0105 52.5943 28.875 52.5943C28.7395 52.5943 28.6053 52.5676 28.4801 52.5158C28.3549 52.4639 28.2412 52.3879 28.1453 52.2921L9.58285 33.7296C9.48696 33.6338 9.4109 33.5201 9.359 33.3949C9.30711 33.2697 9.28039 33.1355 9.28039 33C9.28039 32.8645 9.30711 32.7303 9.359 32.6051C9.4109 32.4799 9.48696 32.3661 9.58285 32.2704L28.1453 13.7079C28.2411 13.612 28.3549 13.5359 28.48 13.484C28.6052 13.4321 28.7394 13.4054 28.875 13.4054C29.0105 13.4054 29.1447 13.4321 29.2699 13.484C29.3951 13.5359 29.5088 13.612 29.6046 13.7079Z" fill="black"/>
</svg>
