<svg width="32" height="32" viewBox="0 0 32 32" fill="none" xmlns="http://www.w3.org/2000/svg">
<circle cx="16" cy="16" r="15" stroke="#5F5F5F" stroke-width="2"/>
<path d="M16.8566 7.66669C17.7941 7.66919 18.2699 7.67419 18.6808 7.68585L18.8424 7.69169C19.0291 7.69835 19.2133 7.70669 19.4358 7.71669C20.3224 7.75835 20.9274 7.89835 21.4583 8.10419C22.0083 8.31585 22.4716 8.60252 22.9349 9.06502C23.3589 9.48146 23.6868 9.98541 23.8958 10.5417C24.1016 11.0725 24.2416 11.6775 24.2833 12.565C24.2933 12.7867 24.3016 12.9709 24.3083 13.1584L24.3133 13.32C24.3258 13.73 24.3308 14.2059 24.3324 15.1434L24.3333 15.765V16.8567C24.3353 17.4645 24.3289 18.0724 24.3141 18.68L24.3091 18.8417C24.3024 19.0292 24.2941 19.2134 24.2841 19.435C24.2424 20.3225 24.1008 20.9267 23.8958 21.4584C23.6868 22.0146 23.3589 22.5186 22.9349 22.935C22.5185 23.3589 22.0146 23.6868 21.4583 23.8959C20.9274 24.1017 20.3224 24.2417 19.4358 24.2834L18.8424 24.3084L18.6808 24.3134C18.2699 24.325 17.7941 24.3309 16.8566 24.3325L16.2349 24.3334H15.1441C14.536 24.3355 13.9279 24.3291 13.3199 24.3142L13.1583 24.3092C12.9605 24.3017 12.7627 24.2931 12.5649 24.2834C11.6783 24.2417 11.0733 24.1017 10.5416 23.8959C9.98564 23.6867 9.48198 23.3588 9.06578 22.935C8.64157 22.5187 8.31337 22.0147 8.10411 21.4584C7.89828 20.9275 7.75828 20.3225 7.71661 19.435L7.69161 18.8417L7.68745 18.68C7.67208 18.0724 7.66514 17.4645 7.66661 16.8567V15.1434C7.66431 14.5355 7.67042 13.9277 7.68495 13.32L7.69078 13.1584C7.69745 12.9709 7.70578 12.7867 7.71578 12.565C7.75745 11.6775 7.89744 11.0734 8.10328 10.5417C8.31302 9.98519 8.6418 9.48122 9.06661 9.06502C9.48257 8.64131 9.98593 8.31341 10.5416 8.10419C11.0733 7.89835 11.6774 7.75835 12.5649 7.71669C12.7866 7.70669 12.9716 7.69835 13.1583 7.69169L13.3199 7.68669C13.9276 7.67188 14.5354 7.66549 15.1433 7.66752L16.8566 7.66669ZM15.9999 11.8334C14.8949 11.8334 13.8351 12.2723 13.0537 13.0537C12.2723 13.8351 11.8333 14.895 11.8333 16C11.8333 17.1051 12.2723 18.1649 13.0537 18.9463C13.8351 19.7277 14.8949 20.1667 15.9999 20.1667C17.105 20.1667 18.1648 19.7277 18.9462 18.9463C19.7276 18.1649 20.1666 17.1051 20.1666 16C20.1666 14.895 19.7276 13.8351 18.9462 13.0537C18.1648 12.2723 17.105 11.8334 15.9999 11.8334ZM15.9999 13.5C16.3282 13.5 16.6533 13.5646 16.9567 13.6902C17.26 13.8157 17.5356 13.9999 17.7678 14.232C18 14.4641 18.1842 14.7396 18.3099 15.0429C18.4356 15.3462 18.5003 15.6713 18.5004 15.9996C18.5004 16.3279 18.4358 16.653 18.3102 16.9563C18.1846 17.2597 18.0005 17.5353 17.7684 17.7675C17.5363 17.9997 17.2607 18.1839 16.9575 18.3096C16.6542 18.4352 16.3291 18.5 16.0008 18.5C15.3377 18.5 14.7019 18.2366 14.233 17.7678C13.7642 17.2989 13.5008 16.6631 13.5008 16C13.5008 15.337 13.7642 14.7011 14.233 14.2323C14.7019 13.7634 15.3377 13.5 16.0008 13.5M20.3758 10.5834C20.0995 10.5834 19.8346 10.6931 19.6392 10.8885C19.4439 11.0838 19.3341 11.3488 19.3341 11.625C19.3341 11.9013 19.4439 12.1662 19.6392 12.3616C19.8346 12.5569 20.0995 12.6667 20.3758 12.6667C20.652 12.6667 20.917 12.5569 21.1123 12.3616C21.3077 12.1662 21.4174 11.9013 21.4174 11.625C21.4174 11.3488 21.3077 11.0838 21.1123 10.8885C20.917 10.6931 20.652 10.5834 20.3758 10.5834Z" fill="#5F5F5F"/>
</svg>
