<svg width="32" height="32" viewBox="0 0 32 32" fill="none" xmlns="http://www.w3.org/2000/svg">
<circle cx="16" cy="16" r="15" stroke="#5F5F5F" stroke-width="2"/>
<path d="M24.25 14.2825C24.2871 13.209 24.0523 12.1435 23.5675 11.185C23.2386 10.7917 22.7821 10.5263 22.2775 10.435C20.1907 10.2451 18.0952 10.1675 16 10.2025C13.9125 10.1672 11.8246 10.2423 9.74503 10.4275C9.33389 10.5023 8.95341 10.6951 8.65003 10.9825C7.97503 11.605 7.90003 12.67 7.82503 13.57C7.71555 15.1881 7.71555 16.8118 7.82503 18.43C7.847 18.9365 7.92242 19.4393 8.05003 19.93C8.14046 20.3088 8.32342 20.6592 8.58253 20.95C8.88798 21.2526 9.27731 21.4564 9.70003 21.535C11.3169 21.735 12.9462 21.8178 14.575 21.7825C17.2 21.82 19.5025 21.7825 22.225 21.5725C22.6578 21.4978 23.0579 21.2939 23.3725 20.9875C23.5823 20.7772 23.7391 20.5202 23.83 20.2375C24.098 19.4144 24.2297 18.553 24.22 17.6875C24.25 17.2675 24.25 14.7325 24.25 14.2825ZM14.305 18.1375V13.495L18.745 15.8275C17.5 16.5175 15.8575 17.2975 14.305 18.1375Z" fill="#5F5F5F"/>
</svg>
