<svg width="28" height="28" viewBox="0 0 28 28" fill="none" xmlns="http://www.w3.org/2000/svg">
<g clip-path="url(#clip0_18_1100)">
<g clip-path="url(#clip1_18_1100)">
<path fill-rule="evenodd" clip-rule="evenodd" d="M9 4H20C22.7614 4 25 6.23858 25 9V20C25 22.7614 22.7614 25 20 25H9C6.23858 25 4 22.7614 4 20V9C4 6.23858 6.23858 4 9 4ZM11.915 14.7245C11.915 13.4202 12.9724 12.3628 14.2767 12.3628C15.5811 12.3628 16.6384 13.4202 16.6384 14.7245C16.6384 16.0288 15.5811 17.0862 14.2767 17.0862C12.9724 17.0862 11.915 16.0288 11.915 14.7245ZM14.2767 9.36279C11.3156 9.36279 8.91504 11.7633 8.91504 14.7245C8.91504 17.6857 11.3156 20.0862 14.2767 20.0862C17.2379 20.0862 19.6384 17.6857 19.6384 14.7245C19.6384 11.7633 17.2379 9.36279 14.2767 9.36279Z" fill="white"/>
<path d="M20.3087 10.2555C20.9256 10.2555 21.4257 9.75542 21.4257 9.1385C21.4257 8.52159 20.9256 8.02148 20.3087 8.02148C19.6918 8.02148 19.1917 8.52159 19.1917 9.1385C19.1917 9.75542 19.6918 10.2555 20.3087 10.2555Z" fill="#2F2621"/>
</g>
</g>
<defs>
<clipPath id="clip0_18_1100">
<rect width="28" height="28" fill="white"/>
</clipPath>
<clipPath id="clip1_18_1100">
<rect width="28" height="28" fill="white"/>
</clipPath>
</defs>
</svg>
