<svg width="150" height="50" viewBox="0 0 150 50" fill="none" xmlns="http://www.w3.org/2000/svg">
<g clip-path="url(#clip0_18_1129)">
<mask id="mask0_18_1129" style="mask-type:luminance" maskUnits="userSpaceOnUse" x="0" y="0" width="150" height="50">
<path d="M149.992 0H0.00772095V49.31H149.992V0Z" fill="white"/>
</mask>
<g mask="url(#mask0_18_1129)">
<path d="M148.584 36.0696C148.584 47.2943 143.727 48.49 138.161 48.49V24.1502C143.403 24.1502 143.915 27.7488 143.915 33.0441H144.366V14.6298H143.915C143.915 19.929 143.403 23.7136 138.161 23.7136V0.819935C143.723 0.819935 148.199 1.70061 148.199 13.1797H148.646V0H128.701V0.440336H132.281V48.8658H128.701V49.31H149.03V36.0657H148.584V36.0696ZM95.2674 19.0445V0.440336H98.8467V0H85.8073V0.440336H89.3866V48.8658H85.8073V49.31H106.136V36.0657H105.69C105.69 47.2906 100.829 48.8658 95.2714 48.8658V19.0407L95.2674 19.0445ZM52.3696 19.0445V0.440336H55.9489V0H42.9095V0.440336H46.4888V48.8658H42.9095V49.31H63.2383V36.0657H62.7919C62.7919 47.2906 57.9348 48.8658 52.3735 48.8658V19.0407L52.3696 19.0445ZM19.8902 36.0696C19.8902 47.2943 15.0331 48.49 9.47173 48.49V24.1502C14.7098 24.1502 15.2256 27.7488 15.2256 33.0441H15.672V14.6298H15.2256C15.2256 19.929 14.7137 23.7136 9.47173 23.7136V0.819935C15.0331 0.819935 19.5053 1.70061 19.5053 13.1797H19.9518V0H0.00772095V0.440336H3.58703V48.8658H0.00772095V49.31H20.3367V36.0657H19.8902V36.0696Z" fill="white"/>
</g>
</g>
<defs>
<clipPath id="clip0_18_1129">
<rect width="149.985" height="49.31" fill="white" transform="translate(0.00772095)"/>
</clipPath>
</defs>
</svg>
